<svg width="20" height="16" viewBox="0 0 20 16" fill="none" xmlns="http://www.w3.org/2000/svg">
<path d="M10.25 8.18342C10.6946 7.79853 11.0513 7.32249 11.2957 6.7876C11.5401 6.25272 11.6667 5.67151 11.6666 5.08342C11.6666 3.97835 11.2277 2.91854 10.4463 2.13714C9.66486 1.35574 8.60505 0.916748 7.49998 0.916748C6.39491 0.916748 5.3351 1.35574 4.5537 2.13714C3.7723 2.91854 3.33331 3.97835 3.33331 5.08342C3.33331 5.67151 3.45981 6.25272 3.70425 6.7876C3.94869 7.32249 4.30533 7.79853 4.74998 8.18342C3.58343 8.71165 2.5937 9.56469 1.89913 10.6405C1.20456 11.7164 0.83454 12.9695 0.833313 14.2501C0.833313 14.4711 0.92111 14.6831 1.07739 14.8393C1.23367 14.9956 1.44563 15.0834 1.66665 15.0834C1.88766 15.0834 2.09962 14.9956 2.2559 14.8393C2.41218 14.6831 2.49998 14.4711 2.49998 14.2501C2.49998 12.924 3.02676 11.6522 3.96445 10.7145C4.90213 9.77687 6.1739 9.25008 7.49998 9.25008C8.82606 9.25008 10.0978 9.77687 11.0355 10.7145C11.9732 11.6522 12.5 12.924 12.5 14.2501C12.5 14.4711 12.5878 14.6831 12.7441 14.8393C12.9003 14.9956 13.1123 15.0834 13.3333 15.0834C13.5543 15.0834 13.7663 14.9956 13.9226 14.8393C14.0788 14.6831 14.1666 14.4711 14.1666 14.2501C14.1654 12.9695 13.7954 11.7164 13.1008 10.6405C12.4063 9.56469 11.4165 8.71165 10.25 8.18342ZM7.49998 7.58342C7.00553 7.58342 6.52218 7.43679 6.11105 7.16209C5.69993 6.88739 5.3795 6.49694 5.19028 6.04012C5.00106 5.58331 4.95155 5.08064 5.04802 4.59569C5.14448 4.11074 5.38258 3.66528 5.73221 3.31565C6.08184 2.96602 6.5273 2.72792 7.01225 2.63145C7.49721 2.53499 7.99987 2.5845 8.45669 2.77372C8.9135 2.96294 9.30395 3.28337 9.57865 3.69449C9.85336 4.10561 9.99998 4.58896 9.99998 5.08342C9.99998 5.74646 9.73659 6.38234 9.26775 6.85118C8.79891 7.32002 8.16302 7.58342 7.49998 7.58342ZM15.6166 7.85008C16.15 7.24952 16.4983 6.50763 16.6198 5.7137C16.7413 4.91977 16.6308 4.10764 16.3015 3.37508C15.9721 2.64252 15.4381 2.02074 14.7637 1.5846C14.0893 1.14846 13.3032 0.916533 12.5 0.916748C12.279 0.916748 12.067 1.00455 11.9107 1.16083C11.7544 1.31711 11.6666 1.52907 11.6666 1.75008C11.6666 1.9711 11.7544 2.18306 11.9107 2.33934C12.067 2.49562 12.279 2.58342 12.5 2.58342C13.163 2.58342 13.7989 2.84681 14.2677 3.31565C14.7366 3.78449 15 4.42037 15 5.08342C14.9988 5.52112 14.8827 5.95083 14.6634 6.3296C14.444 6.70836 14.129 7.0229 13.75 7.24175C13.6264 7.31302 13.5232 7.4148 13.4503 7.53737C13.3773 7.65993 13.3371 7.79917 13.3333 7.94175C13.3298 8.08322 13.3624 8.22325 13.428 8.34863C13.4936 8.47402 13.5901 8.58063 13.7083 8.65842L14.0333 8.87508L14.1416 8.93342C15.1461 9.40985 15.9936 10.1634 16.5841 11.1053C17.1747 12.0473 17.4838 13.1384 17.475 14.2501C17.475 14.4711 17.5628 14.6831 17.7191 14.8393C17.8753 14.9956 18.0873 15.0834 18.3083 15.0834C18.5293 15.0834 18.7413 14.9956 18.8976 14.8393C19.0538 14.6831 19.1416 14.4711 19.1416 14.2501C19.1485 12.9713 18.8282 11.712 18.2112 10.5918C17.5942 9.47164 16.7011 8.52784 15.6166 7.85008Z" fill="#343435"/>
</svg>
