<svg width="18" height="17" viewBox="0 0 18 17" fill="none" xmlns="http://www.w3.org/2000/svg">
<path d="M14.8334 3.21486H9.60002L9.33335 2.38153C9.16048 1.89255 8.83981 1.46945 8.41577 1.17083C7.99173 0.872211 7.48532 0.712863 6.96669 0.714862H3.16669C2.50365 0.714862 1.86776 0.978254 1.39892 1.4471C0.930079 1.91594 0.666687 2.55182 0.666687 3.21486V14.0482C0.666687 14.7112 0.930079 15.3471 1.39892 15.816C1.86776 16.2848 2.50365 16.5482 3.16669 16.5482H14.8334C15.4964 16.5482 16.1323 16.2848 16.6011 15.816C17.07 15.3471 17.3334 14.7112 17.3334 14.0482V5.71486C17.3334 5.05182 17.07 4.41594 16.6011 3.9471C16.1323 3.47825 15.4964 3.21486 14.8334 3.21486ZM15.6667 14.0482C15.6667 14.2692 15.5789 14.4812 15.4226 14.6375C15.2663 14.7937 15.0544 14.8815 14.8334 14.8815H3.16669C2.94567 14.8815 2.73371 14.7937 2.57743 14.6375C2.42115 14.4812 2.33335 14.2692 2.33335 14.0482V3.21486C2.33335 2.99385 2.42115 2.78189 2.57743 2.62561C2.73371 2.46933 2.94567 2.38153 3.16669 2.38153H6.96669C7.14139 2.38108 7.31182 2.43554 7.45388 2.53723C7.59594 2.63892 7.70245 2.78268 7.75835 2.9482L8.20835 4.31486C8.26426 4.48038 8.37077 4.62414 8.51283 4.72583C8.65489 4.82751 8.82532 4.88198 9.00002 4.88153H14.8334C15.0544 4.88153 15.2663 4.96933 15.4226 5.12561C15.5789 5.28189 15.6667 5.49385 15.6667 5.71486V14.0482Z" fill="#D9D9D9"/>
</svg>
