<svg width="15" height="15" viewBox="0 0 15 15" fill="none" xmlns="http://www.w3.org/2000/svg">
<path d="M0 6.10714C0 5.21954 0.719542 4.5 1.60714 4.5C2.49474 4.5 3.21429 5.21954 3.21429 6.10714V13.3929C3.21429 14.2805 2.49474 15 1.60714 15C0.719542 15 0 14.2805 0 13.3929V6.10714ZM12 10.0714C12 9.243 12.6716 8.57143 13.5 8.57143C14.3284 8.57143 15 9.243 15 10.0714V13.5C15 14.3284 14.3284 15 13.5 15C12.6716 15 12 14.3284 12 13.5V10.0714ZM6 1.5C6 0.671573 6.67157 0 7.5 0C8.32843 0 9 0.671573 9 1.5V13.5C9 14.3284 8.32843 15 7.5 15C6.67157 15 6 14.3284 6 13.5V1.5Z" fill="#D9D9D9"/>
</svg>
